<svg width="128" height="128" viewBox="0 0 128 128" fill="none" xmlns="http://www.w3.org/2000/svg">
<path d="M27.2354 13.8848C20.0584 13.8848 14.7494 20.1688 14.9864 26.9838C15.2144 33.5298 14.9184 42.0098 12.7834 48.9238C10.6434 55.8598 7.02335 60.2428 1.11035 60.8068V67.1938C7.02335 67.7568 10.6434 72.1408 12.7834 79.0768C14.9184 85.9908 15.2134 94.4708 14.9864 101.017C14.7484 107.832 20.0584 114.115 27.2354 114.115H100.775C107.952 114.115 113.261 107.831 113.024 101.017C112.796 94.4708 113.092 85.9908 115.226 79.0768C117.366 72.1418 120.977 67.7578 126.89 67.1938V60.8068C120.977 60.2438 117.367 55.8598 115.226 48.9238C113.092 42.0098 112.796 33.5298 113.024 26.9838C113.261 20.1688 107.952 13.8848 100.774 13.8848H27.2354ZM85.3493 75.5708C85.3493 84.9548 78.3474 90.6438 66.7283 90.6438H45.3064C45.1761 90.6438 45.0512 90.592 44.9592 90.5C44.8671 90.4079 44.8153 90.283 44.8153 90.1528V37.8268C44.8152 37.7622 44.8278 37.6982 44.8524 37.6386C44.8771 37.5789 44.9132 37.5246 44.9588 37.4789C45.0044 37.4332 45.0586 37.397 45.1182 37.3722C45.1779 37.3475 45.2418 37.3348 45.3064 37.3348H66.6153C76.3044 37.3348 82.6624 42.5808 82.6624 50.6348C82.6624 56.2878 78.3853 61.3478 72.9353 62.2348V62.5308C80.3533 63.3438 85.3493 68.4788 85.3493 75.5708ZM64.5714 44.0958H53.2934V60.0178H62.7934C70.1354 60.0178 74.1843 57.0628 74.1843 51.7798C74.1843 46.8298 70.7034 44.0958 64.5714 44.0958ZM53.2934 66.3358V83.8838H64.9883C72.6333 83.8838 76.6833 80.8178 76.6833 75.0538C76.6833 69.2908 72.5204 66.3358 64.4964 66.3358H53.2934Z" fill="#7952B3"/>
</svg>
