<svg width="43" height="48" viewBox="0 0 43 48" fill="none" xmlns="http://www.w3.org/2000/svg">
<path fill-rule="evenodd" clip-rule="evenodd" d="M16.9178 16.263V12.5919C16.9178 11.9229 16.9517 11.6998 17.0526 11.3566C17.3223 10.4131 18.2327 9.7099 19.3114 9.7099C20.39 9.7099 21.3001 10.4303 21.5698 11.3566C21.671 11.6998 21.7049 11.9229 21.7049 12.5919V18.2529C21.7049 18.5962 21.7049 18.9391 21.6374 19.248C21.4521 20.1056 20.6936 20.8779 19.8507 21.0665C19.5474 21.1349 19.2102 21.135 18.8729 21.135H13.3108C12.6534 21.135 12.4342 21.1007 12.097 20.9977C11.1868 20.7233 10.4791 19.7969 10.4791 18.6991C10.4791 17.601 11.1868 16.6747 12.097 16.4003C12.4342 16.2973 12.6534 16.263 13.3108 16.263H16.9178ZM36.7399 41.9273H6.90568V15.1824C6.90568 14.8391 7.02369 14.5476 7.25972 14.3074L14.9963 6.43303C15.2323 6.19312 15.5188 6.073 15.856 6.073H36.7399V41.9273ZM40.128 0.034229C39.9764 0.0171142 39.774 0 39.3863 0H15.0635C14.7942 0 14.5245 0.0171142 14.3389 0.034229C13.2264 0.137224 12.2318 0.669007 11.4397 1.47524L2.3882 10.6876C1.59635 11.4941 1.07355 12.506 0.972654 13.6384C0.955538 13.8269 0.938721 14.1014 0.938721 14.3758V44.6204C0.938721 45.015 0.955538 45.221 0.972654 45.3753C1.10718 46.662 2.25337 47.8282 3.51757 47.9655C3.66951 47.9829 3.8716 48 4.25927 48H39.3863C39.774 48 39.9764 47.9829 40.128 47.9655C41.3922 47.8282 42.5384 46.662 42.6732 45.3753C42.6897 45.221 42.7068 45.015 42.7068 44.6204V3.37956C42.7068 2.985 42.6897 2.77902 42.6732 2.62468C42.5384 1.33801 41.3922 0.171453 40.128 0.034229Z" fill="#F47F22"/>
</svg>
