<svg width="128" height="128" viewBox="0 0 128 128" fill="none" xmlns="http://www.w3.org/2000/svg">
<path d="M1.4082 1.4082H126.592V126.593H1.4082V1.4082Z" fill="#F0DB4F"/>
<path d="M110.037 90.5376C109.12 84.8266 105.396 80.0296 94.365 75.5566C90.533 73.7956 86.261 72.5346 84.988 69.6306C84.536 67.9406 84.476 66.9886 84.762 65.9656C85.583 62.6456 89.546 61.6106 92.687 62.5626C94.71 63.2406 96.625 64.7996 97.78 67.2866C103.182 63.7886 103.171 63.8116 106.943 61.4076C105.562 59.2666 104.825 58.2786 103.921 57.3626C100.672 53.7336 96.245 51.8646 89.165 52.0076L85.477 52.4846C81.943 53.3776 78.575 55.2326 76.6 57.7196C70.674 64.4436 72.364 76.2116 79.575 81.0546C86.679 86.3866 97.115 87.5996 98.448 92.5856C99.745 98.6896 93.962 100.666 88.214 99.9636C83.978 99.0826 81.622 96.9296 79.075 93.0146C74.387 95.7276 74.387 95.7276 69.567 98.4996C70.71 100.999 71.911 102.13 73.827 104.295C82.895 113.493 105.587 113.041 109.657 99.1186C109.822 98.6406 110.918 95.4526 110.037 90.5376V90.5376ZM63.152 52.7446H51.443L51.395 83.0166C51.395 89.4546 51.728 95.3566 50.681 97.1656C48.968 100.724 44.529 100.283 42.506 99.5926C40.447 98.5806 39.4 97.1416 38.187 95.1076C37.854 94.5236 37.604 94.0716 37.52 94.0366L28 99.8666C29.583 103.116 31.915 105.936 34.902 107.768C39.364 110.446 45.361 111.267 51.633 109.827C55.715 108.638 59.237 106.175 61.081 102.426C63.747 97.5106 63.175 91.5616 63.151 84.9816C63.211 74.2466 63.152 63.5136 63.152 52.7446V52.7446Z" fill="#323330"/>
</svg>
