<svg width="128" height="128" viewBox="0 0 128 128" fill="none" xmlns="http://www.w3.org/2000/svg">
<rect width="128" height="128" fill="#6181B6"/>
<path d="M27.8231 54.0775C31.5374 54.0775 34.0145 54.7653 35.2516 56.1423C36.4874 57.5179 36.7834 59.8796 36.1355 63.2261C35.4597 66.7113 34.1583 69.1992 32.2286 70.6896C30.2988 72.1787 27.3623 72.9239 23.4204 72.9239H17.472L21.122 54.0789H27.8231V54.0775V54.0775ZM4 92H13.7772L16.0966 80.0288H24.4718C28.1666 80.0288 31.2064 79.6407 33.5928 78.8605C35.9791 78.0816 38.1491 76.7761 40.1012 74.9425C41.6849 73.4995 43.0284 71.8117 44.0807 69.943C45.0959 68.1219 45.815 66.1132 46.2409 63.9125C47.2756 58.5741 46.495 54.4179 43.9006 51.4398C41.3062 48.4617 37.1814 46.9726 31.5262 46.9726H12.723L4 92V92ZM53.4223 35H63.1227L60.8034 46.9712H69.4454C74.8828 46.9712 78.6334 47.9238 80.6986 49.8247C82.7637 51.7284 83.3809 54.8129 82.5557 59.0742L78.4979 80.0288H68.6425L72.5006 60.1052C72.939 57.8387 72.7785 56.2922 72.0161 55.4671C71.2537 54.6448 69.6311 54.2316 67.1498 54.2316H59.3959L54.3998 80.0288H44.6993L53.4223 35V35ZM104.139 54.0775C107.853 54.0775 110.33 54.7653 111.566 56.1423C112.805 57.5179 113.098 59.8796 112.451 63.2261C111.776 66.7113 110.473 69.1992 108.543 70.6896C106.613 72.1787 103.678 72.9239 99.7349 72.9239H93.7879L97.438 54.0789H104.139V54.0775V54.0775ZM80.3173 92H90.0946L92.4139 80.0288H100.788C104.483 80.0288 107.522 79.6407 109.909 78.8605C112.296 78.0816 114.466 76.7761 116.417 74.9425C118.002 73.4999 119.346 71.812 120.398 69.943C121.412 68.1219 122.132 66.1132 122.558 63.9125C123.592 58.5741 122.812 54.4179 120.218 51.4398C117.624 48.4617 113.499 46.9726 107.842 46.9726H89.0403L80.3173 92V92Z" fill="#000004"/>
</svg>
