<svg width="127" height="113" viewBox="0 0 127 113" fill="none" xmlns="http://www.w3.org/2000/svg">
<path d="M64.0001 68.4001C70.2961 68.4001 75.4001 63.2961 75.4001 57.0001C75.4001 50.7041 70.2961 45.6001 64.0001 45.6001C57.7041 45.6001 52.6001 50.7041 52.6001 57.0001C52.6001 63.2961 57.7041 68.4001 64.0001 68.4001Z" fill="#61DAFB"/>
<path d="M107.423 37.4982C105.191 36.6896 102.858 35.881 100.423 35.1735C101.032 32.7478 101.539 30.322 101.945 27.9973C104.075 14.6556 101.742 5.25581 95.25 1.61717C93.3227 0.505366 91.1925 0 88.758 0C81.6573 0 72.6294 5.25581 63.5 14.0492C54.3706 5.25581 45.3426 0 38.242 0C35.8075 0 33.6773 0.505366 31.75 1.61717C25.258 5.35689 22.9249 14.7567 25.0551 27.9973C25.4609 30.322 25.9681 32.7478 26.5767 35.1735C24.1422 35.881 21.8091 36.5885 19.5775 37.4982C6.89776 42.3497 0 49.0206 0 56.5C0 63.9794 6.9992 70.6503 19.5775 75.5018C21.8091 76.3104 24.1422 77.119 26.5767 77.8265C25.9681 80.2522 25.4609 82.678 25.0551 85.0027C22.9249 98.3444 25.258 107.744 31.75 111.383C33.6773 112.495 35.8075 113 38.242 113C45.4441 113 54.472 107.744 63.5 98.9508C72.6294 107.744 81.6573 113 88.758 113C91.1925 113 93.3227 112.495 95.25 111.383C101.742 107.643 104.075 98.2433 101.945 85.0027C101.539 82.678 101.032 80.2522 100.423 77.8265C102.858 77.119 105.191 76.4114 107.423 75.5018C120.102 70.6503 127 63.9794 127 56.5C127 49.0206 120.102 42.3497 107.423 37.4982V37.4982ZM92.4097 6.67084C96.5687 9.0966 97.9888 16.576 96.2644 27.1887C95.9601 29.3113 95.4529 31.5349 94.8442 33.8596C89.5695 32.6467 83.9904 31.8381 78.107 31.3327C74.6581 26.4812 71.1078 22.1351 67.5575 18.1932C75.0639 10.8148 82.6717 5.76118 88.8594 5.76118C90.1781 5.76118 91.3954 6.0644 92.4097 6.67084V6.67084ZM81.0487 66.6073C79.2228 69.8417 77.0926 73.076 74.861 76.3104C71.1078 76.6136 67.3546 76.7147 63.5 76.7147C59.5439 76.7147 55.7907 76.6136 52.139 76.3104C49.9073 73.076 47.8786 69.8417 46.0527 66.6073C44.1254 63.2719 42.2995 59.8354 40.6765 56.5C42.2995 53.1646 44.1254 49.7281 46.0527 46.3927C47.8786 43.1583 50.0088 39.924 52.2404 36.6896C55.9936 36.3864 59.7468 36.2853 63.6014 36.2853C67.5575 36.2853 71.3107 36.3864 74.9625 36.6896C77.1941 39.924 79.2228 43.1583 81.0487 46.3927C82.976 49.7281 84.8019 53.1646 86.4249 56.5C84.7005 59.8354 82.976 63.1708 81.0487 66.6073ZM89.468 63.2719C90.9896 66.8095 92.2069 70.246 93.3227 73.6825C89.8738 74.4911 86.222 75.0975 82.3674 75.6029C83.5847 73.6825 84.9034 71.661 86.0192 69.5385C87.2364 67.4159 88.3522 65.2934 89.468 63.2719ZM63.5 90.6628C61.0655 88.0349 58.7324 85.2048 56.5008 82.2737C58.8339 82.3748 61.1669 82.4758 63.5 82.4758C65.8331 82.4758 68.1661 82.3748 70.4992 82.2737C68.2676 85.2048 65.9345 88.0349 63.5 90.6628ZM44.6326 75.5018C40.778 74.9964 37.1262 74.39 33.6773 73.5814C34.7931 70.246 36.0104 66.7084 37.5319 63.1708C38.6478 65.1923 39.7636 67.3148 40.9808 69.3363C42.1981 71.5599 43.4153 73.4803 44.6326 75.5018V75.5018ZM37.5319 49.7281C36.0104 46.1905 34.7931 42.754 33.6773 39.3175C37.1262 38.5089 40.778 37.9025 44.6326 37.3971C43.4153 39.3175 42.0966 41.339 40.9808 43.4615C39.7636 45.5841 38.6478 47.7066 37.5319 49.7281V49.7281ZM63.5 22.3372C65.9345 24.9651 68.2676 27.7952 70.4992 30.7263C68.1661 30.6252 65.8331 30.5241 63.5 30.5241C61.1669 30.5241 58.8339 30.6252 56.5008 30.7263C58.7324 27.7952 61.0655 24.9651 63.5 22.3372ZM86.0192 43.5626L82.3674 37.4982C86.222 38.0036 89.8738 38.61 93.3227 39.4186C92.2069 42.754 90.9896 46.2916 89.468 49.8292C88.3522 47.7066 87.2364 45.5841 86.0192 43.5626ZM30.7356 27.1887C29.0112 16.576 30.4313 9.0966 34.5903 6.67084C35.6046 6.0644 36.8219 5.76118 38.1406 5.76118C44.2268 5.76118 51.8347 10.7138 59.4425 18.1932C55.8922 22.034 52.3419 26.4812 48.893 31.3327C43.0096 31.8381 37.4305 32.7478 32.1557 33.8596C31.5471 31.5349 31.1414 29.3113 30.7356 27.1887V27.1887ZM5.68051 56.5C5.68051 51.7496 11.4625 46.6959 21.6062 42.9562C23.635 42.1476 25.8666 41.4401 28.0982 40.8336C29.7212 45.8873 31.75 51.2442 34.1845 56.6011C31.75 61.958 29.6198 67.2138 28.0982 72.2674C14.0998 68.2245 5.68051 62.1601 5.68051 56.5ZM34.5903 106.329C30.4313 103.903 29.0112 96.424 30.7356 85.8113C31.0399 83.6887 31.5471 81.4651 32.1557 79.1404C37.4305 80.3533 43.0096 81.1619 48.893 81.6673C52.3419 86.5188 55.8922 90.8649 59.4425 94.8068C51.9361 102.185 44.3283 107.239 38.1406 107.239C36.8219 107.239 35.6046 106.936 34.5903 106.329ZM96.2644 85.8113C97.9888 96.424 96.5687 103.903 92.4097 106.329C91.3954 106.936 90.1781 107.239 88.8594 107.239C82.7732 107.239 75.1653 102.286 67.5575 94.8068C71.1078 90.966 74.6581 86.5188 78.107 81.6673C83.9904 81.1619 89.5695 80.2522 94.8442 79.1404C95.4529 81.4651 95.8586 83.6887 96.2644 85.8113V85.8113ZM105.394 70.0438C103.365 70.8524 101.133 71.5599 98.9018 72.1664C97.2788 67.1127 95.25 61.7558 92.8155 56.3989C95.25 51.042 97.3802 45.7862 98.9018 40.7326C112.9 44.7755 121.319 50.8399 121.319 56.5C121.319 61.2504 115.436 66.3041 105.394 70.0438Z" fill="#61DAFB"/>
</svg>
