<svg width="128" height="128" viewBox="0 0 128 128" fill="none" xmlns="http://www.w3.org/2000/svg">
<path d="M64.0001 75.4001C70.2961 75.4001 75.4001 70.2961 75.4001 64.0001C75.4001 57.7041 70.2961 52.6001 64.0001 52.6001C57.7041 52.6001 52.6001 57.7041 52.6001 64.0001C52.6001 70.2961 57.7041 75.4001 64.0001 75.4001Z" fill="#61DAFB"/>
<path d="M107.423 44.4982C105.191 43.6896 102.858 42.881 100.423 42.1735C101.032 39.7478 101.539 37.322 101.945 34.9973C104.075 21.6556 101.742 12.2558 95.25 8.61717C93.3227 7.50537 91.1925 7 88.758 7C81.6573 7 72.6294 12.2558 63.5 21.0492C54.3706 12.2558 45.3426 7 38.242 7C35.8075 7 33.6773 7.50537 31.75 8.61717C25.258 12.3569 22.9249 21.7567 25.0551 34.9973C25.4609 37.322 25.9681 39.7478 26.5767 42.1735C24.1422 42.881 21.8091 43.5885 19.5775 44.4982C6.89776 49.3497 0 56.0206 0 63.5C0 70.9794 6.9992 77.6503 19.5775 82.5018C21.8091 83.3104 24.1422 84.119 26.5767 84.8265C25.9681 87.2522 25.4609 89.678 25.0551 92.0027C22.9249 105.344 25.258 114.744 31.75 118.383C33.6773 119.495 35.8075 120 38.242 120C45.4441 120 54.472 114.744 63.5 105.951C72.6294 114.744 81.6573 120 88.758 120C91.1925 120 93.3227 119.495 95.25 118.383C101.742 114.643 104.075 105.243 101.945 92.0027C101.539 89.678 101.032 87.2522 100.423 84.8265C102.858 84.119 105.191 83.4114 107.423 82.5018C120.102 77.6503 127 70.9794 127 63.5C127 56.0206 120.102 49.3497 107.423 44.4982V44.4982ZM92.4097 13.6708C96.5687 16.0966 97.9888 23.576 96.2644 34.1887C95.9601 36.3113 95.4529 38.5349 94.8442 40.8596C89.5695 39.6467 83.9904 38.8381 78.107 38.3327C74.6581 33.4812 71.1078 29.1351 67.5575 25.1932C75.0639 17.8148 82.6717 12.7612 88.8594 12.7612C90.1781 12.7612 91.3954 13.0644 92.4097 13.6708V13.6708ZM81.0487 73.6073C79.2228 76.8417 77.0926 80.076 74.861 83.3104C71.1078 83.6136 67.3546 83.7147 63.5 83.7147C59.5439 83.7147 55.7907 83.6136 52.139 83.3104C49.9073 80.076 47.8786 76.8417 46.0527 73.6073C44.1254 70.2719 42.2995 66.8354 40.6765 63.5C42.2995 60.1646 44.1254 56.7281 46.0527 53.3927C47.8786 50.1583 50.0088 46.924 52.2404 43.6896C55.9936 43.3864 59.7468 43.2853 63.6014 43.2853C67.5575 43.2853 71.3107 43.3864 74.9625 43.6896C77.1941 46.924 79.2228 50.1583 81.0487 53.3927C82.976 56.7281 84.8019 60.1646 86.4249 63.5C84.7005 66.8354 82.976 70.1708 81.0487 73.6073ZM89.468 70.2719C90.9896 73.8095 92.2069 77.246 93.3227 80.6825C89.8738 81.4911 86.222 82.0975 82.3674 82.6029C83.5847 80.6825 84.9034 78.661 86.0192 76.5385C87.2364 74.4159 88.3522 72.2934 89.468 70.2719ZM63.5 97.6628C61.0655 95.0349 58.7324 92.2048 56.5008 89.2737C58.8339 89.3748 61.1669 89.4758 63.5 89.4758C65.8331 89.4758 68.1661 89.3748 70.4992 89.2737C68.2676 92.2048 65.9345 95.0349 63.5 97.6628ZM44.6326 82.5018C40.778 81.9964 37.1262 81.39 33.6773 80.5814C34.7931 77.246 36.0104 73.7084 37.5319 70.1708C38.6478 72.1923 39.7636 74.3148 40.9808 76.3363C42.1981 78.5599 43.4153 80.4803 44.6326 82.5018V82.5018ZM37.5319 56.7281C36.0104 53.1905 34.7931 49.754 33.6773 46.3175C37.1262 45.5089 40.778 44.9025 44.6326 44.3971C43.4153 46.3175 42.0966 48.339 40.9808 50.4615C39.7636 52.5841 38.6478 54.7066 37.5319 56.7281V56.7281ZM63.5 29.3372C65.9345 31.9651 68.2676 34.7952 70.4992 37.7263C68.1661 37.6252 65.8331 37.5241 63.5 37.5241C61.1669 37.5241 58.8339 37.6252 56.5008 37.7263C58.7324 34.7952 61.0655 31.9651 63.5 29.3372ZM86.0192 50.5626L82.3674 44.4982C86.222 45.0036 89.8738 45.61 93.3227 46.4186C92.2069 49.754 90.9896 53.2916 89.468 56.8292C88.3522 54.7066 87.2364 52.5841 86.0192 50.5626ZM30.7356 34.1887C29.0112 23.576 30.4313 16.0966 34.5903 13.6708C35.6046 13.0644 36.8219 12.7612 38.1406 12.7612C44.2268 12.7612 51.8347 17.7138 59.4425 25.1932C55.8922 29.034 52.3419 33.4812 48.893 38.3327C43.0096 38.8381 37.4305 39.7478 32.1557 40.8596C31.5471 38.5349 31.1414 36.3113 30.7356 34.1887V34.1887ZM5.68051 63.5C5.68051 58.7496 11.4625 53.6959 21.6062 49.9562C23.635 49.1476 25.8666 48.4401 28.0982 47.8336C29.7212 52.8873 31.75 58.2442 34.1845 63.6011C31.75 68.958 29.6198 74.2138 28.0982 79.2674C14.0998 75.2245 5.68051 69.1601 5.68051 63.5ZM34.5903 113.329C30.4313 110.903 29.0112 103.424 30.7356 92.8113C31.0399 90.6887 31.5471 88.4651 32.1557 86.1404C37.4305 87.3533 43.0096 88.1619 48.893 88.6673C52.3419 93.5188 55.8922 97.8649 59.4425 101.807C51.9361 109.185 44.3283 114.239 38.1406 114.239C36.8219 114.239 35.6046 113.936 34.5903 113.329ZM96.2644 92.8113C97.9888 103.424 96.5687 110.903 92.4097 113.329C91.3954 113.936 90.1781 114.239 88.8594 114.239C82.7732 114.239 75.1653 109.286 67.5575 101.807C71.1078 97.966 74.6581 93.5188 78.107 88.6673C83.9904 88.1619 89.5695 87.2522 94.8442 86.1404C95.4529 88.4651 95.8586 90.6887 96.2644 92.8113V92.8113ZM105.394 77.0438C103.365 77.8524 101.133 78.5599 98.9018 79.1664C97.2788 74.1127 95.25 68.7558 92.8155 63.3989C95.25 58.042 97.3802 52.7862 98.9018 47.7326C112.9 51.7755 121.319 57.8399 121.319 63.5C121.319 68.2504 115.436 73.3041 105.394 77.0438Z" fill="#61DAFB"/>
</svg>
